<svg width="63" height="34" viewBox="0 0 63 34" fill="none" xmlns="http://www.w3.org/2000/svg">
<path d="M874.804 0C859.152 0 859.152 14 843.609 14C828.065 14 827.957 0 812.413 0C796.87 0 796.761 14 781.217 14C765.565 14 765.565 0 749.913 0C734.261 0 734.261 14 718.717 14C703.065 14 703.065 0 687.522 0C671.87 0 671.87 14 656.326 14C640.783 14 640.348 0 624.804 0C609.152 0 609.152 14 593.609 14C578.065 14 577.848 0 562.304 0C546.652 0 546.652 14 531.109 14C515.456 14 515.456 0 499.804 0C484.152 0 484.152 14 468.609 14C452.956 14 452.957 0 437.413 0C421.87 0 421.652 14 406 14C390.348 14 390.348 0 374.804 0C359.152 0 359.152 14 343.609 14C327.956 14 327.956 0 312.304 0C296.652 0 296.652 14 281.109 14C265.456 14 265.457 0 249.913 0C234.261 0 234.261 14 218.717 14C203.065 14 203.065 0 187.522 0C171.87 0 171.87 14 156.217 14C140.565 14 140.565 0 124.913 0C109.261 0 109.261 14 93.6087 14C77.9565 14 77.9565 0 62.3043 0C46.6522 0 46.6522 14 31 14C15.3478 14 15.3478 0 -0.304341 0C-15.9565 0 -15.9565 14 -31.6087 14C-47.2609 14 -47.2609 0 -62.913 0C-78.5652 0 -78.5652 14 -94.1087 14C-109.761 14 -109.761 0 -125.413 0C-141.065 0 -141.065 14 -156.717 14C-172.37 14 -172.37 0 -188.022 0C-203.674 0 -203.674 14 -219.326 14C-234.978 14 -234.978 0 -250.63 0C-265.848 0 -265.848 14 -281.5 14C-297.152 14 -297.152 0 -312.696 0C-328.239 0 -328.348 14 -344 14V34H906V14C890.348 14 890.348 0 874.804 0Z" fill="white"/>
</svg>
